<svg id="Слой_1" data-name="Слой 1" xmlns="http://www.w3.org/2000/svg" viewBox="0 0 507 507"><defs><style>.cls-1{fill:#3f3f3f;}.cls-2,.cls-4{opacity:0.2;}.cls-3{fill:#fff;}.cls-5{fill:#e4e4e4;}.cls-6{fill:#009688;}</style></defs><rect class="cls-1" width="507" height="507" rx="23.8"/><g class="cls-2"><path d="M485.23,498.65H25.84A23.8,23.8,0,0,1,2,474.84v10.5a23.8,23.8,0,0,0,23.8,23.81H485.23A23.81,23.81,0,0,0,509,485.34v-10.5A23.81,23.81,0,0,1,485.23,498.65Z" transform="translate(-2.04 -2.15)"/></g><g class="cls-2"><path class="cls-3" d="M485.23,2.15H25.84A23.79,23.79,0,0,0,2,26v10.5a23.79,23.79,0,0,1,23.8-23.8H485.23A23.8,23.8,0,0,1,509,36.45V26A23.8,23.8,0,0,0,485.23,2.15Z" transform="translate(-2.04 -2.15)"/></g><path class="cls-4" d="M456.91,207.79,385.18,98.94a10,10,0,0,0-17.29,1l-41.79,83.4-144.2,95a80.47,80.47,0,1,0,29.43,45.27l10.51-6.92a66.53,66.53,0,0,0,6,11.33h0A66.56,66.56,0,0,0,319.94,347l17.24-11.36a66.56,66.56,0,0,0,19.55-91.15c-.2-.33-.41-.65-.62-1a65.69,65.69,0,0,0-4.29-5.79c-1.2-1.46-2.46-2.85-3.76-4.18l7.17-4.73,93.92-5.56A10,10,0,0,0,456.91,207.79Zm-142.49,54.6a22.14,22.14,0,0,1,4.38,4.52l.57.83c.21.33.42.66.62,1a22.54,22.54,0,0,1-7,30.18l-17.24,11.36a22.55,22.55,0,0,1-25.6-.58A22.42,22.42,0,0,1,260.88,291L309,259.29A22.09,22.09,0,0,1,314.42,262.39Z" transform="translate(-2.04 -2.15)"/><polygon class="cls-5" points="394.51 193.46 338.19 230.58 211.88 313.81 205.8 317.82 176.09 272.73 364.8 148.37 394.51 193.46"/><path class="cls-5" d="M319,225l130.13-7.7a10,10,0,0,0,7.76-15.48L385.18,92.94a10,10,0,0,0-17.29,1l-58.4,116.55A10,10,0,0,0,319,225Z" transform="translate(-2.04 -2.15)"/><circle class="cls-6" cx="130.97" cy="334.2" r="80.5"/><path class="cls-5" d="M356.73,238.5c-.2-.33-.41-.65-.62-1a65.69,65.69,0,0,0-4.29-5.79c-.12-.14-.23-.28-.36-.42-.34-.42-.69-.83-1.06-1.23-.77-.89-1.58-1.76-2.4-2.6a66.61,66.61,0,0,0-84-8.89l-3.27,2.16-14,9.2a66.45,66.45,0,0,0-18.94,92.11h0A66.56,66.56,0,0,0,319.94,341l17.24-11.36A66.56,66.56,0,0,0,356.73,238.5ZM313,292.91l-17.24,11.36a22.34,22.34,0,0,1-2.81,1.58,22.59,22.59,0,0,1-22.79-2.16,22.4,22.4,0,0,1-8.53-12.49,22.7,22.7,0,0,1-.73-6.17A22.43,22.43,0,0,1,271,266.7l12-7.93,5.2-3.43a22.47,22.47,0,0,1,20.73-2.09l.1,0A22.08,22.08,0,0,1,314,256l.47.35a22.14,22.14,0,0,1,4.38,4.52l.57.83c.21.33.42.66.62,1A22.54,22.54,0,0,1,313,292.91Z" transform="translate(-2.04 -2.15)"/><path class="cls-4" d="M246.76,230l14-9.2q-2.4,1.31-4.73,2.84L238.76,235a66.61,66.61,0,0,0-24.84,81l7.91-5.21A66.6,66.6,0,0,1,246.76,230Z" transform="translate(-2.04 -2.15)"/><path class="cls-4" d="M351.52,231.28l-.06,0L314,256a22.08,22.08,0,0,0-4.92-2.75l31.2-20.56,7.82-5.16,2.35,2.52Z" transform="translate(-2.04 -2.15)"/></svg>